<svg width="1440" height="1048" viewBox="0 0 1440 1048" fill="none" xmlns="http://www.w3.org/2000/svg">
<g clip-path="url(#clip0)">
<rect width="1440" height="1048" fill="white"/>
<circle cx="240" cy="418" r="72.5" stroke="#00BCD4" stroke-opacity="0.69"/>
<path d="M199 402.248L239.359 439L281 375" stroke="#00BCD4" stroke-opacity="0.69"/>
<path d="M1 603C523.41 1012.97 847.999 1052.31 1439.5 1047H1V603Z" fill="#A3D8F4" fill-opacity="0.45"/>
<path d="M187 1048C1117.69 934.288 1399.01 762.159 1450 252V1048H187Z" fill="#9AB3F5" fill-opacity="0.4"/>
<path d="M1 -6.61334H1441C1441 -6.61334 481 -24.1627 248 177.198C15 378.559 1 825 1 825V-6.61334Z" fill="#9AB3F5" fill-opacity="0.45"/>
<path d="M844.1 563.26L844.098 563.417L844.185 563.546C852.853 576.484 867.702 585.02 884.5 585.02C901.298 585.02 916.147 576.484 924.815 563.546L924.902 563.417L924.9 563.26C924.847 559.795 923.06 556.763 920.283 554.184C917.507 551.608 913.708 549.45 909.529 547.717C901.175 544.252 891.185 542.44 884.5 542.44C877.782 542.44 867.792 544.252 859.446 547.717C855.271 549.45 851.478 551.608 848.708 554.185C845.935 556.763 844.153 559.796 844.1 563.26ZM818.5 537C818.5 500.848 848.065 471.5 884.5 471.5C920.935 471.5 950.5 500.848 950.5 537C950.5 573.152 920.935 602.5 884.5 602.5C848.065 602.5 818.5 573.152 818.5 537ZM904.95 510.6C904.95 499.364 895.812 490.3 884.5 490.3C873.188 490.3 864.05 499.364 864.05 510.6C864.05 521.836 873.188 530.9 884.5 530.9C895.812 530.9 904.95 521.836 904.95 510.6Z" fill="#A3D8F4" fill-opacity="0.45" stroke="#A3D8F4"/>
<path d="M243.5 494V958H884.5V602.5" stroke="#7579E7" stroke-dasharray="4 5"/>
<path d="M886 470.5V327.692H1265V261" stroke="#7579E7" stroke-dasharray="4 5"/>
<path d="M1265.04 267.117L1264.18 266.675C1175.58 220.245 1187.48 130.315 1187.59 129.431L1187.83 127.784H1189.43C1245.79 127.784 1263.47 109.148 1263.63 108.947L1265 107.461L1266.37 108.947C1266.53 109.108 1284.25 127.744 1340.57 127.744H1342.17L1342.41 129.391C1342.52 130.275 1354.42 220.204 1265.82 266.635L1265.04 267.117ZM1191.12 131.64C1189.98 143.81 1186.26 221.008 1265 262.86C1343.78 221.008 1340.02 143.851 1338.92 131.64C1290.01 131.319 1270.09 117.342 1265 112.923C1259.95 117.342 1240.03 131.319 1191.12 131.64Z" fill="#A3D8F4" fill-opacity="0.33"/>
<g clip-path="url(#clip1)">
<path d="M691.386 360.163L580.301 320.969C578.812 320.444 577.188 320.444 575.7 320.969L464.614 360.163C461.852 361.138 460.004 363.746 460 366.675C459.996 369.604 461.839 372.217 464.598 373.198L575.684 412.69C576.433 412.956 577.217 413.089 578 413.089C578.784 413.089 579.567 412.956 580.316 412.69L691.402 373.198C694.161 372.217 696.003 369.604 696 366.675C695.996 363.746 694.148 361.138 691.386 360.163Z" fill="#A3D8F4" fill-opacity="0.46"/>
<path d="M679.394 452.452V392.143L665.566 397.059V452.452C661.401 454.849 658.594 459.341 658.594 464.492C658.594 469.643 661.401 474.135 665.566 476.532V510.511C665.566 514.329 668.662 517.425 672.48 517.425C676.298 517.425 679.394 514.329 679.394 510.511V476.533C683.559 474.136 686.366 469.643 686.366 464.493C686.366 459.342 683.56 454.849 679.394 452.452Z" fill="#A3D8F4" fill-opacity="0.46"/>
<path d="M578 426.918C575.627 426.918 573.289 426.514 571.052 425.719L508.603 403.518V433.944C508.603 441.387 516.368 447.682 531.684 452.653C545.033 456.986 561.482 459.372 578 459.372C594.518 459.372 610.967 456.986 624.316 452.653C639.631 447.682 647.397 441.387 647.397 433.944V403.518L584.948 425.719C582.711 426.514 580.373 426.918 578 426.918Z" fill="#A3D8F4" fill-opacity="0.46"/>
</g>
<g clip-path="url(#clip2)">
<path d="M1279.24 488.326L1248.11 447.885C1246.96 446.39 1244.86 446.021 1243.26 447.034L1223.16 459.817H1196.95C1196.61 459.817 1196.27 459.889 1195.95 459.984L1175.62 465.835L1154.53 460.067L1134.04 447.034C1132.47 446.038 1130.41 446.375 1129.24 447.82L1094.81 490.471C1093.57 492.004 1093.78 494.242 1095.27 495.526L1113.32 511.058L1129.51 532.877C1124.77 537.922 1124.86 545.879 1129.79 550.807C1131.98 552.99 1134.75 554.223 1137.61 554.51C1137.51 555.157 1137.46 555.814 1137.46 556.481C1137.46 559.924 1138.8 563.16 1141.23 565.594C1143.67 568.029 1146.91 569.37 1150.35 569.37C1150.4 569.37 1150.44 569.367 1150.49 569.366C1150.48 569.454 1150.48 569.541 1150.48 569.629C1150.48 573.071 1151.82 576.308 1154.26 578.743C1156.69 581.177 1159.93 582.518 1163.37 582.518C1164.05 582.518 1164.72 582.463 1165.38 582.36C1165.66 585.227 1166.9 588.017 1169.09 590.208C1171.6 592.721 1174.9 593.977 1178.2 593.977C1181.5 593.977 1184.8 592.721 1187.32 590.208L1189.29 588.237L1190.11 588.904C1192.61 591.318 1195.84 592.524 1199.08 592.524C1202.38 592.524 1205.68 591.268 1208.19 588.755C1210.76 586.19 1212.01 582.806 1211.96 579.439C1215.32 579.49 1218.71 578.235 1221.27 575.672C1223.84 573.109 1225.09 569.728 1225.04 566.362C1228.55 566.417 1231.88 565.07 1234.36 562.589C1236.92 560.024 1238.18 556.64 1238.12 553.272C1241.49 553.323 1244.88 552.069 1247.44 549.505C1251.82 545.128 1252.38 538.364 1249.14 533.37L1260.96 508.61L1278.73 493.315C1280.2 492.051 1280.42 489.86 1279.24 488.326ZM1132.87 454.937L1147.61 464.307L1115.55 503.359L1102.71 492.304L1132.87 454.937ZM1134.95 537.736L1139.4 533.289C1139.53 533.154 1139.67 533.026 1139.82 532.907C1140.69 532.198 1141.74 531.775 1142.86 531.674C1142.89 531.671 1142.92 531.671 1142.95 531.67C1143.11 531.657 1143.27 531.649 1143.43 531.65C1144.95 531.671 1146.37 532.294 1147.42 533.403C1149.48 535.581 1149.37 539.14 1147.17 541.337L1142.86 545.649C1140.68 547.83 1137.13 547.83 1134.95 545.649C1132.77 543.467 1132.77 539.917 1134.95 537.736ZM1146.39 560.436C1145.33 559.38 1144.75 557.975 1144.75 556.481C1144.75 554.987 1145.33 553.582 1146.39 552.524L1155.02 543.901C1156.67 542.249 1159.26 541.796 1161.38 542.802C1163.55 543.84 1164.78 546.203 1164.46 548.579C1164.29 549.848 1163.7 551.043 1162.79 551.95L1154.3 560.436C1153.25 561.493 1151.84 562.075 1150.35 562.075C1148.85 562.075 1147.45 561.493 1146.39 560.436ZM1159.41 573.583C1158.36 572.528 1157.77 571.123 1157.77 569.629C1157.77 568.134 1158.36 566.729 1159.41 565.672L1168.04 557.048C1169.8 555.283 1172.64 554.903 1174.8 556.162C1176.77 557.311 1177.81 559.567 1177.47 561.815C1177.28 563.051 1176.7 564.213 1175.81 565.097L1167.33 573.583C1166.27 574.641 1164.86 575.222 1163.37 575.222C1161.88 575.222 1160.47 574.641 1159.41 573.583ZM1174.25 585.05C1172.06 582.868 1172.06 579.319 1174.25 577.138L1178.69 572.691C1178.83 572.556 1178.97 572.43 1179.11 572.311C1179.12 572.308 1179.12 572.305 1179.12 572.302C1179.85 571.715 1180.7 571.321 1181.6 571.15C1181.62 571.147 1181.65 571.144 1181.67 571.141C1181.82 571.113 1181.98 571.09 1182.14 571.076C1182.2 571.07 1182.27 571.07 1182.33 571.066C1182.46 571.059 1182.59 571.05 1182.73 571.052C1184.25 571.073 1185.67 571.695 1186.72 572.804C1186.85 572.941 1186.97 573.083 1187.08 573.229C1188.75 575.421 1188.53 578.678 1186.45 580.761L1182.16 585.051C1179.98 587.232 1176.43 587.231 1174.25 585.05ZM1242.28 544.346C1240.1 546.529 1236.55 546.528 1234.37 544.346C1234.29 544.267 1234.21 544.193 1234.12 544.124L1210.67 520.425C1209.25 518.993 1206.94 518.982 1205.51 520.4C1204.08 521.816 1204.07 524.125 1205.49 525.557L1229.19 549.509C1229.19 549.512 1229.2 549.515 1229.2 549.517C1231.38 551.699 1231.38 555.249 1229.2 557.43C1228.14 558.487 1226.74 559.069 1225.24 559.069C1223.75 559.069 1222.34 558.487 1221.29 557.43L1205.43 541.408C1204.01 539.976 1201.7 539.964 1200.27 541.381C1198.84 542.798 1198.83 545.107 1200.25 546.539L1215.86 562.316C1215.94 562.415 1216.03 562.51 1216.12 562.601C1218.3 564.782 1218.3 568.333 1216.12 570.514C1213.93 572.695 1210.38 572.694 1208.2 570.513L1199.55 561.767C1198.13 560.335 1195.82 560.322 1194.39 561.74C1192.96 563.156 1192.95 565.465 1194.36 566.897L1202.78 575.397C1202.86 575.496 1202.94 575.593 1203.03 575.684C1205.21 577.865 1205.21 581.415 1203.03 583.596C1200.85 585.779 1197.3 585.778 1195.12 583.596C1194.87 583.345 1194.57 583.152 1194.29 582.937C1194.06 582.755 1193.99 582.629 1194.11 582.339C1194.23 582.045 1194.41 581.78 1194.53 581.485C1194.67 581.156 1194.78 580.816 1194.88 580.476C1195.44 578.674 1195.6 576.735 1195.35 574.865C1194.87 571.276 1192.9 568.038 1189.9 565.989C1188.29 564.883 1186.42 564.158 1184.48 563.886C1185.42 559.742 1184.29 555.249 1181.36 552.148C1178.94 549.597 1175.68 548.165 1172.17 548.117C1172.04 548.115 1171.91 548.115 1171.78 548.117C1171.86 544.768 1170.65 541.44 1168.34 539.001C1165.92 536.449 1162.66 535.017 1159.15 534.969C1158.11 534.955 1157.05 535.066 1156.04 535.3C1155.6 532.279 1154.08 529.483 1151.77 527.484C1149.48 525.5 1146.6 524.399 1143.53 524.356C1140.3 524.309 1137.13 525.501 1134.73 527.668L1120.63 508.671L1154.36 467.581L1165.11 470.521L1151.07 495.293C1149.37 498.289 1148.94 501.766 1149.86 505.084C1150.78 508.403 1152.93 511.164 1155.93 512.862C1156.11 512.968 1156.3 513.069 1156.49 513.165C1156.51 513.172 1156.52 513.179 1156.54 513.187C1157.04 513.438 1157.56 513.653 1158.09 513.835C1160.53 514.682 1163.17 514.774 1165.72 514.071C1169.04 513.152 1171.8 510.997 1173.49 508.003L1182.62 491.903L1198.91 493.058L1242.28 536.434C1244.46 538.616 1244.46 542.165 1242.28 544.346ZM1243.79 527.628L1203.1 486.938C1203.03 486.86 1202.94 486.786 1202.86 486.717C1202.27 486.228 1201.55 485.933 1200.78 485.879L1180.84 484.465C1179.46 484.37 1178.09 485.103 1177.41 486.305L1167.15 504.407C1166.41 505.707 1165.21 506.642 1163.77 507.041C1162.33 507.439 1160.82 507.252 1159.52 506.515C1158.22 505.779 1157.29 504.58 1156.89 503.14C1156.49 501.699 1156.68 500.189 1157.41 498.889L1171.11 474.724L1176.65 473.128C1176.69 473.116 1176.73 473.102 1176.76 473.091L1197.47 467.111H1222.49L1253.73 506.819L1243.79 527.628ZM1258.51 501.095L1229.62 464.354L1244.36 454.978L1271.36 490.039L1258.51 501.095Z" fill="#A3D8F4" fill-opacity="0.66"/>
<path d="M1206.68 452.968C1207.62 452.968 1208.55 452.612 1209.26 451.9L1234.18 426.987C1235.6 425.562 1235.6 423.253 1234.18 421.828C1232.75 420.404 1230.44 420.404 1229.02 421.828L1204.11 446.742C1202.68 448.166 1202.68 450.475 1204.11 451.9C1204.82 452.612 1205.75 452.968 1206.68 452.968Z" fill="#A3D8F4" fill-opacity="0.66"/>
<path d="M1164.74 451.9C1165.45 452.612 1166.38 452.968 1167.32 452.968C1168.25 452.968 1169.18 452.612 1169.89 451.9C1171.32 450.475 1171.32 448.166 1169.89 446.742L1144.98 421.828C1143.56 420.404 1141.25 420.404 1139.82 421.828C1138.4 423.253 1138.4 425.562 1139.82 426.987L1164.74 451.9Z" fill="#A3D8F4" fill-opacity="0.66"/>
<path d="M1187 452.968C1189.01 452.968 1190.65 451.335 1190.65 449.321V428.704C1190.65 426.69 1189.01 425.057 1187 425.057C1184.99 425.057 1183.35 426.69 1183.35 428.704V449.321C1183.35 451.335 1184.99 452.968 1187 452.968Z" fill="#A3D8F4" fill-opacity="0.66"/>
<path d="M1183.63 415.485C1184.21 416.889 1185.66 417.81 1187.18 417.73C1188.68 417.652 1190 416.636 1190.47 415.204C1190.94 413.761 1190.43 412.116 1189.22 411.197C1187.99 410.257 1186.27 410.205 1184.98 411.058C1183.54 412.008 1182.98 413.901 1183.63 415.485Z" fill="#A3D8F4" fill-opacity="0.66"/>
</g>
<path d="M503.898 741.543H440.264V677.844H503.898V741.543ZM442.407 739.398H501.78V679.964H442.407V739.398Z" fill="#A3D8F4" fill-opacity="0.88"/>
<path d="M662.236 701.189H516.605V685.626H662.236V701.189ZM518.748 699.069H660.118V687.746H518.748V699.069Z" fill="#A3D8F4" fill-opacity="0.88"/>
<path d="M662.236 773.591H440.264V758.028H662.236V773.591ZM442.407 771.471H660.118V760.148H442.407V771.471Z" fill="#A3D8F4" fill-opacity="0.88"/>
<path d="M581.659 803.495H440.289V787.932H581.659V803.495ZM442.407 801.375H579.541V790.052H442.407V801.375Z" fill="#A3D8F4" fill-opacity="0.88"/>
<path d="M615.245 730.893H516.63V715.33H615.245V730.893ZM518.748 728.773H613.127V717.45H518.748V728.773Z" fill="#A3D8F4" fill-opacity="0.88"/>
<path d="M687.525 837.339H415V644H687.5V837.339H687.525ZM417.118 835.219H685.382V646.12H417.118V835.219Z" fill="#A3D8F4" fill-opacity="0.88"/>
<path d="M615 1059C1262.73 985.859 1458.51 875.142 1494 547V1059H615Z" fill="#9AB3F5" fill-opacity="0.45"/>
</g>
<defs>
<clipPath id="clip0">
<rect width="1440" height="1048" fill="white"/>
</clipPath>
<clipPath id="clip1">
<rect width="236" height="236" fill="white" transform="translate(460 301)"/>
</clipPath>
<clipPath id="clip2">
<rect width="186" height="186" fill="white" transform="translate(1094 409)"/>
</clipPath>
</defs>
</svg>
